<?xml version="1.0" encoding="utf-8"?>
<!-- Svg Vector Icons : http://www.onlinewebfonts.com/icon -->
<!DOCTYPE svg PUBLIC "-//W3C//DTD SVG 1.1//EN" "http://www.w3.org/Graphics/SVG/1.1/DTD/svg11.dtd">
<svg version="1.1" xmlns="http://www.w3.org/2000/svg" xmlns:xlink="http://www.w3.org/1999/xlink" x="0px" y="0px" viewBox="0 0 1000 1000" enable-background="new 0 0 1000 1000" xml:space="preserve">
<metadata> Svg Vector Icons : http://www.onlinewebfonts.com/icon </metadata>
<g>
  <path d="M990,498.3c0,5.3-1.9,9.8-5.7,13.6L766.6,712.7c-6,5.3-12.7,6.4-19.8,3.4c-7.2-3.4-10.8-8.9-10.8-16.4v-127H28.1c-5.3,0-9.6-1.7-13-5.1c-3.4-3.4-5.1-7.8-5.1-13V445.6c0-5.3,1.7-9.6,5.1-13c3.4-3.4,7.8-5.1,13-5.1h707.8v-127c0-7.9,3.6-13.4,10.8-16.4c7.2-3,13.8-2.1,19.8,2.8l217.8,198.5C988.1,489.1,990,493.4,990,498.3L990,498.3z" fill="white"/>
</g>
</svg>
